<?xml version="1.0" encoding="utf-8"?>
<svg width="48" height="48" viewBox="0 0 48 48" fill="none" xmlns="http://www.w3.org/2000/svg">
  <g>
    <path d="M48 41.3334C48 45.016 45.016 48 41.3333 48C41.3333 48 6.66667 48 6.66667 48C2.98533 48 0 45.016 0 41.3334C0 41.3334 0 6.66667 0 6.66667C0 2.984 2.98533 0 6.66667 0C6.66667 0 41.3333 0 41.3333 0C45.016 0 48 2.984 48 6.66667C48 6.66667 48 41.3334 48 41.3334C48 41.3334 48 41.3334 48 41.3334Z" fill="#3F51B5" />
    <path d="M14.6837 15.5L10.3333 15.5L10.3333 32.2917L3.875 32.2917L3.875 15.5L0 15.5L0 10.3333L3.875 10.3333C3.875 10.3333 3.875 7.22042 3.875 7.22042C3.87758 2.68925 5.75954 0 11.098 0C11.098 0 15.5 0 15.5 0L15.5 5.16667C15.5 5.16667 12.546 5.16667 12.546 5.16667C10.4677 5.16667 10.3333 5.94167 10.3333 7.39221C10.3333 7.39221 10.3333 10.3333 10.3333 10.3333L15.5 10.3333L14.6837 15.5L14.6837 15.5Z" fill="#FFFFFF" transform="matrix(1 0 0 1 22.708 9.792)" />
  </g>
</svg>